Coordinates
version=1
nRows=11
nColumns=63
inDegrees=yes

Units are S.I. units (second, meters, Newtons, ...)
If the header above contains a line with 'inDegrees', this indicates whether rotational values are in degrees (yes) or radians (no).

endheader
time	pelvis_tilt	pelvis_list	pelvis_rotation	pelvis_tx	pelvis_ty	pelvis_tz	hip_flexion_r	hip_adduction_r	hip_rotation_r	knee_angle_r	knee_angle_r_beta	ankle_angle_r	subtalar_angle_r	mtp_angle_r	hip_flexion_l	hip_adduction_l	hip_rotation_l	knee_angle_l	knee_angle_l_beta	ankle_angle_l	subtalar_angle_l	mtp_angle_l	L5_S1_Flex_Ext	L5_S1_Lat_Bending	L5_S1_axial_rotation	L4_L5_Flex_Ext	L4_L5_Lat_Bending	L4_L5_axial_rotation	L3_L4_Flex_Ext	L3_L4_Lat_Bending	L3_L4_axial_rotation	L2_L3_Flex_Ext	L2_L3_Lat_Bending	L2_L3_axial_rotation	L1_L2_Flex_Ext	L1_L2_Lat_Bending	L1_L2_axial_rotation	L1_T12_Flex_Ext	L1_T12_Lat_Bending	L1_T12_axial_rotation	Abs_r3	Abs_r2	Abs_r1	Abs_t1	Abs_t2	neck_flexion	neck_bending	neck_rotation	arm_flex_r	arm_add_r	arm_rot_r	elbow_flex_r	pro_sup_r	wrist_flex_r	wrist_dev_r	arm_flex_l	arm_add_l	arm_rot_l	elbow_flex_l	pro_sup_l	wrist_flex_l	wrist_dev_l
      2.93333333	    -21.67618828	      5.56256162	    -98.92063612	     -0.06571318	      0.95724448	     -1.10752887	     23.30455583	     -6.03818902	    -24.56013835	     57.66477974	      1.00644027	     12.98574746	     14.33913627	      0.00000000	     32.06673491	    -19.12075490	     12.15526169	     56.66585123	      0.98900568	     17.90839015	    -19.57874494	      0.00000000	     -0.01309252	     -1.01344018	      0.61954870	     -0.02431413	     -1.34787544	      0.65827049	     -0.02150971	     -2.46407845	      0.65827049	     -0.01496345	     -2.46407845	      0.54210511	     -0.01215772	     -2.06660721	      0.50338332	     -0.00748107	     -1.56981883	      0.46466152	     -0.09351859	    -11.46423797	      3.44574400	      0.00000000	      0.00000000	    -16.14559585	     14.68920174	     -1.81757169	    -17.14585391	    -35.98987058	    -61.38490530	     88.48157489	     89.99559364	      0.00000000	      0.00000000	     -3.79842037	    -40.21058091	     11.71702160	     24.10536194	     89.99559364	      0.00000000	      0.00000000
      2.95000000	    -21.61498537	      5.48860687	   -100.68820233	     -0.06970781	      0.95760591	     -1.09941166	     24.46182921	     -7.17951944	    -21.90171510	     55.40636652	      0.96702352	     11.22202134	     14.68565052	      0.00000000	     30.89687317	    -20.08632284	     10.50900464	     57.03799927	      0.99550089	     17.98181761	    -19.54828525	      0.00000000	     -0.01410415	     -1.15008181	      1.16887122	     -0.02619282	     -1.52960881	      1.24192567	     -0.02317171	     -2.79630892	      1.24192567	     -0.01611963	     -2.79630892	      1.02276232	     -0.01309711	     -2.34524683	      0.94970787	     -0.00805911	     -1.78147673	      0.87665341	     -0.10074454	    -13.00995546	      6.50091106	      0.00000000	      0.00000000	    -14.73576001	     14.71671307	     -6.75320043	    -20.39189734	    -35.43168854	    -64.84354118	     88.38741823	     89.99559364	      0.00000000	      0.00000000	     -2.88160067	    -39.81044312	      4.53857538	     25.26687962	     89.99559364	      0.00000000	      0.00000000
      2.96666667	    -22.06916564	      5.46497316	   -100.35426214	     -0.07142210	      0.95704784	     -1.09021852	     24.71759085	     -8.64820926	    -21.51733094	     52.79287625	      0.92140951	      9.89588555	     15.63497677	      0.00000000	     30.38898226	    -20.44174324	     11.00191253	     57.13917436	      0.99726672	     18.40175339	    -19.50834402	      0.00000000	     -0.01564720	     -1.21966182	      1.37721931	     -0.02905841	     -1.62215023	      1.46329552	     -0.02570678	     -2.96548576	      1.46329552	     -0.01788318	     -2.96548576	      1.20506690	     -0.01452999	     -2.48713439	      1.11899069	     -0.00894081	     -1.88925617	      1.03291448	     -0.11176637	    -13.79705849	      7.65968063	      0.00000000	      0.00000000	    -14.89647105	     14.41776141	     -7.06929846	    -23.83356502	    -34.95557791	    -68.22754925	     88.32906242	     89.99559364	      0.00000000	      0.00000000	     -1.37170166	    -40.01029407	      3.03846054	     26.09455859	     89.99559364	      0.00000000	      0.00000000
      2.98333333	    -23.10709391	      5.50832083	    -98.24871223	     -0.07106489	      0.95588609	     -1.08025814	     24.15353367	    -10.09722909	    -22.88479055	     50.01239935	      0.87288104	      8.99323268	     16.51626798	      0.00000000	     30.56013004	    -20.50131494	     13.34061263	     57.04588586	      0.99563853	     18.95336545	    -19.48291871	      0.00000000	     -0.01658015	     -1.22290008	      1.23733907	     -0.03079100	     -1.62645711	      1.31467276	     -0.02723953	     -2.97335926	      1.31467276	     -0.01894945	     -2.97335926	      1.08267168	     -0.01539633	     -2.49373785	      1.00533799	     -0.00947390	     -1.89427223	      0.92800430	     -0.11843035	    -13.83369031	      6.88170868	      0.00000000	      0.00000000	    -15.42880891	     13.29747712	    -10.45963490	    -26.83790795	    -34.82501068	    -70.88525071	     87.74749478	     89.99559364	      0.00000000	      0.00000000	     -0.57775371	    -39.26350894	     -3.05721794	     27.14741656	     89.99559364	      0.00000000	      0.00000000
      3.00000000	    -24.40799854	      5.55146920	    -95.23602511	     -0.06986116	      0.95412585	     -1.07067245	     23.21791523	    -11.47234329	    -25.01591466	     47.55759250	      0.83003657	      8.42180638	     17.23265720	      0.00000000	     31.19458812	    -20.41154451	     16.58003506	     56.95454603	      0.99404435	     19.55757656	    -19.46678612	      0.00000000	     -0.01785683	     -1.18722403	      0.89959910	     -0.03316192	     -1.57900796	      0.95582405	     -0.02933698	     -2.88661650	      0.95582405	     -0.02040857	     -2.88661650	      0.78714922	     -0.01658185	     -2.42098723	      0.73092427	     -0.01020339	     -1.83901002	      0.67469933	     -0.12754954	    -13.43011563	      5.00330034	      0.00000000	      0.00000000	    -15.91510714	     13.26700575	    -10.58638330	    -29.45064095	    -34.85047040	    -73.29778631	     87.44668082	     89.99559364	      0.00000000	      0.00000000	      0.46607319	    -39.55972048	     -3.22507629	     27.89180404	     89.99559364	      0.00000000	      0.00000000
      3.01666667	    -25.83621781	      5.47797594	    -92.26987729	     -0.06877212	      0.95227184	     -1.06193453	     22.10081617	    -12.53836454	    -27.11034810	     45.46350799	      0.79348790	      7.89416972	     17.75300289	      0.00000000	     31.84913795	    -20.54536445	     19.69668990	     56.93239786	      0.99365779	     20.20720309	    -19.44771787	      0.00000000	     -0.01860205	     -1.12694846	      0.46313018	     -0.03454586	     -1.49884145	      0.49207582	     -0.03056130	     -2.74006248	      0.49207582	     -0.02126028	     -2.74006248	      0.40523891	     -0.01727386	     -2.29807329	      0.37629327	     -0.01062921	     -1.74564316	      0.34734764	     -0.13287256	    -12.74826632	      2.57579113	      0.00000000	      0.00000000	    -16.59214057	     13.12080227	    -10.25062043	    -31.29388712	    -35.37170920	    -74.82862311	     87.42245026	     89.99559364	      0.00000000	      0.00000000	      0.82228835	    -40.14226221	     -2.85088696	     28.66210038	     89.99559364	      0.00000000	      0.00000000
      3.03333333	    -27.10762341	      5.23679009	    -90.32736303	     -0.06871081	      0.95083052	     -1.05463880	     21.13209559	    -13.27705910	    -28.31068662	     43.67335146	      0.76224378	      7.14490451	     18.16148217	      0.00000000	     32.08474440	    -21.14354588	     21.69783741	     56.95906110	      0.99412316	     20.90942678	    -19.42308721	      0.00000000	     -0.02067540	     -1.06746322	      0.06951053	     -0.03839629	     -1.41972608	      0.07385494	     -0.03396761	     -2.59543007	      0.07385494	     -0.02362991	     -2.59543007	      0.06082172	     -0.01919918	     -2.17677099	      0.05647731	     -0.01181392	     -1.65350052	      0.05213290	     -0.14768231	    -12.07535740	      0.38659673	      0.00000000	      0.00000000	    -17.34225002	     12.58143134	     -8.91244523	    -32.11996747	    -36.59443477	    -75.25795886	     87.98010521	     89.99559364	      0.00000000	      0.00000000	      0.32271798	    -41.06413535	     -2.11108129	     29.59283372	     89.99559364	      0.00000000	      0.00000000
      3.05000000	    -27.73251617	      4.77611521	    -90.00504089	     -0.07019104	      0.95039179	     -1.04780561	     20.56699885	    -14.04137282	    -27.72688288	     42.27376359	      0.73781636	      6.11427745	     18.23824028	      0.00000000	     31.33173817	    -22.03615392	     21.73011175	     57.01485852	      0.99509700	     21.60678433	    -19.41708386	      0.00000000	     -0.02209873	     -1.06814689	     -0.12551462	     -0.04103954	     -1.42063536	     -0.13335928	     -0.03630600	     -2.59709234	     -0.13335928	     -0.02525663	     -2.59709234	     -0.10982529	     -0.02052088	     -2.17816513	     -0.10198063	     -0.01262721	     -1.65455953	     -0.09413596	     -0.15784899	    -12.08309123	     -0.69807464	      0.00000000	      0.00000000	    -17.40822695	     12.36383002	     -8.36993822	    -32.29863787	    -37.92690422	    -75.22842251	     89.12370433	     89.99559364	      0.00000000	      0.00000000	     -0.68657986	    -42.12647382	     -2.01853022	     29.69655571	     89.99559364	      0.00000000	      0.00000000
      3.06666667	    -28.73790821	      4.14336900	    -90.12867011	     -0.07239590	      0.95061183	     -1.04126642	     19.59149184	    -14.21405320	    -27.72118900	     40.47324677	      0.70639142	      5.19371831	     18.59381756	      0.00000000	     30.29747939	    -23.61512921	     21.52611698	     57.02959253	      0.99535416	     22.26427335	    -19.35639833	      0.00000000	     -0.02521729	     -1.01607350	     -0.44675049	     -0.04683104	     -1.35137775	     -0.47467239	     -0.04142949	     -2.47048110	     -0.47467239	     -0.02882084	     -2.47048110	     -0.39090668	     -0.02341678	     -2.07197708	     -0.36298477	     -0.01440916	     -1.57389785	     -0.33506286	     -0.18012461	    -11.49402662	     -2.48469218	      0.00000000	      0.00000000	    -19.93310215	      9.23995294	      0.25204875	    -30.75829629	    -40.43493001	    -73.07630273	     90.25946418	     89.99559364	      0.00000000	      0.00000000	     -4.42619387	    -43.54388085	     -2.21339117	     31.30735138	     89.99559364	      0.00000000	      0.00000000
      3.08333333	    -29.23903361	      3.67595218	    -91.05673852	     -0.07555850	      0.95112060	     -1.03560458	     19.33752288	    -14.69733787	    -26.87265593	     38.95447711	      0.67988388	      4.47774970	     18.62239031	      0.00000000	     28.99023086	    -25.02061550	     20.32046435	     57.07534496	      0.99615269	     22.74312190	    -19.31657221	      0.00000000	     -0.02629888	     -1.02364775	     -0.59680064	     -0.04883964	     -1.36145151	     -0.63410068	     -0.04320642	     -2.48889714	     -0.63410068	     -0.03005699	     -2.48889714	     -0.52220056	     -0.02442114	     -2.08742249	     -0.48490052	     -0.01502718	     -1.58563037	     -0.44760048	     -0.18785024	    -11.57970809	     -3.31922610	      0.00000000	      0.00000000	    -20.50525463	      8.57416192	      5.22633010	    -28.99158395	    -42.55348455	    -71.27228461	     91.42126815	     89.99559364	      0.00000000	      0.00000000	     -8.22605648	    -44.49458006	     -4.77956567	     32.47983833	     89.99559364	      0.00000000	      0.00000000
      3.10000000	    -29.53419154	      3.56806033	    -91.61510313	     -0.07899259	      0.95121668	     -1.03122828	     19.64232611	    -15.59667284	    -26.50556399	     37.71098323	      0.65818082	      3.90871891	     18.42705591	      0.00000000	     28.35235599	    -25.93227136	     19.57944095	     57.18407750	      0.99805043	     22.90536769	    -19.29900506	      0.00000000	     -0.02354879	     -1.06569348	     -0.72966072	     -0.04373246	     -1.41737233	     -0.77526451	     -0.03868831	     -2.59112713	     -0.77526451	     -0.02691391	     -2.59112713	     -0.63845313	     -0.02186741	     -2.17316215	     -0.59284933	     -0.01345578	     -1.65075920	     -0.54724554	     -0.16820665	    -12.05533781	     -4.05815401	      0.00000000	      0.00000000	    -20.20680145	      8.01785220	      7.79927232	    -27.14623773	    -44.16558387	    -70.00366811	     92.44212056	     89.99559364	      0.00000000	      0.00000000	    -11.55768251	    -45.78649439	     -6.25370908	     33.62158862	     89.99559364	      0.00000000	      0.00000000
